<?xml version="1.0" standalone="no"?>
<!DOCTYPE svg PUBLIC "-//W3C//DTD SVG 20010904//EN"
 "http://www.w3.org/TR/2001/REC-SVG-20010904/DTD/svg10.dtd">
<svg version="1.0" xmlns="http://www.w3.org/2000/svg"
 width="828.000000pt" height="809.000000pt" viewBox="0 0 828.000000 809.000000"
 preserveAspectRatio="xMidYMid meet">

<g transform="translate(0.000000,809.000000) scale(0.100000,-0.100000)"
fill="#000000" stroke="none">
<path d="M0 4045 l0 -4045 4140 0 4140 0 0 4045 0 4045 -4140 0 -4140 0 0
-4045z m3796 3065 c46 -20 135 -75 174 -108 14 -12 52 -43 85 -71 138 -114
449 -437 438 -454 -3 -6 -2 -7 4 -4 10 6 104 -104 274 -322 142 -183 236 -318
339 -487 36 -59 37 -62 23 -95 -19 -47 -70 -96 -111 -110 -23 -8 -77 -9 -166
-4 -176 9 -198 1 -260 -99 -25 -40 -56 -78 -70 -85 -28 -15 -81 -12 -194 13
-101 23 -140 11 -228 -67 -81 -72 -154 -107 -234 -114 -54 -5 -66 -2 -137 33
-67 33 -90 39 -159 42 -71 3 -89 0 -160 -27 -43 -18 -99 -34 -124 -37 -58 -8
-86 13 -124 93 -16 32 -35 65 -43 74 -12 15 -8 40 32 205 25 104 55 231 67
282 l21 92 53 0 c110 0 231 74 277 169 18 38 22 63 22 141 0 87 -3 100 -30
148 -28 52 -120 132 -151 132 -7 0 -16 4 -19 10 -14 23 111 433 165 540 68
135 121 159 236 110z m709 -395 c701 -114 1338 -466 1819 -1005 173 -193 337
-440 461 -695 58 -119 145 -331 145 -355 0 -6 -26 -10 -57 -10 l-58 0 -29 83
c-38 111 -159 358 -239 489 -187 306 -470 617 -757 830 -358 266 -787 456
-1203 534 -94 17 -99 20 -140 64 -69 74 -73 80 -51 80 11 0 60 -7 109 -15z
m-1135 -42 c0 -5 -6 -30 -13 -57 l-13 -48 -129 -38 c-583 -169 -1058 -475
-1454 -935 -212 -248 -404 -569 -511 -857 l-33 -88 -58 0 -58 0 23 68 c196
566 604 1101 1131 1478 277 198 650 372 990 460 96 25 125 28 125 17z m102
-310 c8 -9 1 -9 -25 2 -20 8 -46 15 -57 15 -22 0 -23 1 -14 24 5 14 11 13 46
-6 21 -12 44 -28 50 -35z m1287 32 c819 -220 1525 -839 1856 -1629 25 -59 45
-110 45 -113 0 -2 -14 -3 -31 -1 -30 3 -34 9 -79 113 -321 754 -980 1335
-1775 1564 -56 16 -76 28 -98 56 -15 19 -24 35 -20 35 4 0 50 -11 102 -25z
m-1465 -22 c-4 -16 -8 -30 -10 -32 -2 -2 -62 -23 -132 -47 -569 -187 -1067
-564 -1415 -1069 -85 -125 -190 -315 -248 -451 -49 -117 -54 -124 -81 -124
-15 0 -28 4 -28 8 0 15 71 184 107 256 184 366 432 678 753 946 262 218 635
418 965 515 101 30 97 30 89 -2z m2261 -613 c58 -45 107 -85 110 -90 3 -5 -13
-34 -35 -64 l-42 -55 -29 22 c-19 14 -33 18 -37 11 -4 -6 -29 -38 -55 -72
l-48 -62 -60 46 c-51 41 -58 49 -46 63 7 9 33 40 57 70 l44 54 -28 24 -28 24
41 54 c23 30 44 55 47 55 3 0 52 -36 109 -80z m-2693 13 c21 -23 58 -77 101
-150 7 -11 -47 -54 -87 -69 -7 -3 -31 25 -56 66 -28 44 -51 70 -62 70 -28 0
-22 -24 26 -97 24 -38 42 -71 40 -75 -2 -3 -27 -20 -54 -37 l-50 -31 -25 40
c-14 23 -52 82 -85 132 -33 50 -60 95 -60 99 0 10 85 69 99 69 6 0 17 -13 26
-30 9 -16 17 -30 19 -30 2 0 20 16 39 35 45 45 91 48 129 8z m-322 -162 c0 -5
3 -23 6 -40 6 -28 4 -31 -18 -31 -24 0 -48 -16 -48 -32 0 -12 38 -10 61 3 32
16 77 14 99 -6 30 -27 27 -86 -6 -125 -26 -31 -118 -90 -141 -90 -6 0 -16 14
-22 31 -14 41 -15 39 13 39 27 0 75 34 64 46 -5 4 -33 1 -63 -6 -64 -15 -101
-3 -111 37 -13 52 19 99 105 155 47 29 61 34 61 19z m3163 -67 c70 -35 117
-98 117 -155 0 -25 -13 -45 -70 -103 l-71 -71 -52 55 c-29 30 -64 63 -79 73
-56 36 -24 127 45 127 18 0 39 -11 59 -30 35 -35 38 -36 38 -11 0 22 -54 71
-78 71 -12 0 -8 8 13 30 33 35 36 35 78 14z m-478 -93 c16 -37 16 -41 1 -56
-9 -9 -16 -20 -16 -25 0 -11 -96 -110 -107 -110 -5 0 -22 -14 -39 -31 -17 -18
-36 -28 -46 -25 -10 2 -16 1 -13 -3 2 -4 -8 -17 -23 -28 -35 -25 -254 -133
-271 -133 -7 0 -38 -12 -69 -26 -79 -37 -89 -41 -154 -59 -32 -8 -64 -18 -73
-21 -10 -4 -15 0 -16 12 0 16 -1 16 -9 -3 -5 -12 -21 -24 -39 -28 -17 -4 -31
-10 -31 -14 0 -4 -9 -7 -19 -8 -22 -2 -125 -26 -216 -50 -33 -9 -69 -18 -80
-20 -318 -61 -557 -84 -664 -64 -111 22 -231 70 -231 93 0 5 -4 6 -10 3 -13
-8 -13 5 0 25 8 12 10 12 10 1 0 -8 2 -12 4 -10 2 2 0 22 -4 44 -7 36 -8 37
-9 10 -1 -33 -16 -63 -26 -53 -4 4 -3 13 1 20 5 7 14 47 20 88 9 61 12 67 13
33 0 -24 4 -43 9 -43 4 0 3 39 -3 87 l-9 88 -13 -103 c-17 -147 -22 -153 -18
-23 2 68 8 117 15 121 6 4 8 15 4 26 -4 10 5 2 19 -18 15 -21 24 -44 21 -52
-3 -8 0 -17 5 -21 6 -3 9 -11 6 -16 -4 -5 -1 -9 4 -9 14 0 14 17 1 25 -5 3
-10 11 -10 16 0 6 14 -1 30 -15 58 -48 127 -47 258 5 113 45 166 44 267 -6 74
-37 86 -40 165 -40 77 0 92 3 153 33 38 19 98 60 134 92 36 32 77 60 92 63 14
3 66 -3 115 -15 107 -25 179 -21 224 11 18 12 50 53 72 90 29 50 47 71 66 75
15 4 84 4 154 0 150 -8 206 5 260 61 18 19 37 32 41 29 9 -5 -57 -76 -86 -92
-17 -9 -14 -10 15 -9 60 3 103 62 77 105 -5 6 -5 17 -2 22 10 16 29 -3 50 -49z
m-45 -6 c0 -10 -35 -47 -55 -57 -15 -8 -12 -2 10 25 27 32 45 45 45 32z
m-2803 -89 l28 -25 -42 -43 c-24 -24 -43 -47 -43 -51 0 -4 11 -7 24 -7 27 0
66 42 66 71 0 22 11 24 28 7 36 -36 -1 -131 -67 -175 -110 -74 -254 50 -194
167 40 77 142 106 200 56z m3562 -50 c32 -17 76 -71 96 -120 14 -32 13 -34 -8
-40 -39 -10 -45 -7 -57 29 -15 47 -45 49 -36 3 25 -118 14 -148 -53 -148 -49
0 -99 42 -135 114 -31 60 -29 70 15 81 24 6 27 3 33 -28 4 -19 13 -40 21 -47
22 -18 30 13 16 59 -15 51 -14 54 10 85 23 29 56 33 98 12z m-2900 -18 c-1
-31 -19 -51 -91 -100 -121 -83 -214 -165 -315 -277 -88 -96 -263 -343 -263
-369 0 -7 -13 -12 -30 -12 -16 0 -30 2 -30 5 0 3 21 40 47 83 159 265 341 460
580 623 90 61 103 67 102 47z m-891 -128 c12 -12 22 -32 22 -45 0 -25 -31 -65
-50 -65 -26 0 -5 -33 45 -71 32 -24 52 -46 48 -53 -3 -6 -20 -29 -37 -51 -16
-22 -31 -41 -32 -43 -4 -6 -203 143 -204 152 0 4 16 30 36 57 30 42 38 47 55
39 17 -9 18 -8 13 17 -4 20 1 36 16 56 26 32 58 35 88 7z m3238 -162 c60 -62
136 -149 169 -193 64 -85 165 -248 165 -265 0 -5 -10 -10 -23 -10 -17 0 -30
11 -47 43 -22 40 -139 217 -150 227 -3 3 -18 21 -33 40 -16 19 -74 81 -129
137 -87 87 -99 104 -88 118 7 8 16 15 20 15 4 0 56 -51 116 -112z m830 -13
c-25 -20 -27 -25 -16 -45 6 -12 10 -23 8 -24 -48 -36 -52 -37 -69 -15 -16 22
-17 22 -48 3 -34 -20 -39 -38 -14 -52 14 -8 10 -14 -26 -36 -48 -31 -70 -25
-101 27 -41 66 -20 126 58 173 26 15 32 24 27 41 -5 21 -2 21 102 -14 l107
-36 -28 -22z m-4332 -42 l35 -16 -29 -52 c-30 -53 -30 -58 7 -79 7 -4 20 9 34
33 22 39 23 40 50 26 38 -20 42 -30 24 -64 -19 -38 -19 -48 3 -55 9 -4 28 -15
41 -25 l24 -18 -33 -59 c-18 -33 -34 -61 -36 -62 -1 -2 -58 28 -126 66 -68 39
-131 74 -141 78 -10 3 -17 12 -15 18 3 13 121 226 125 226 1 0 18 -8 37 -17z
m4407 -206 c-16 -16 -13 -27 8 -27 14 0 27 -16 45 -56 14 -31 26 -60 26 -65 0
-5 -80 -9 -179 -9 l-178 0 -27 61 c-14 33 -26 62 -26 65 0 2 30 4 68 4 l67 0
75 82 74 81 29 -62 c22 -46 27 -65 18 -74z m-2781 -644 c0 -4 -11 -18 -24 -32
-13 -15 -26 -38 -29 -52 -6 -22 -2 -28 28 -42 69 -33 94 -116 55 -184 -73
-131 -260 -76 -260 75 0 53 44 136 94 177 57 46 136 80 136 58z m625 -18 c32
-9 61 -18 63 -20 3 -2 -10 -47 -29 -99 l-33 -94 -44 39 c-67 59 -162 75 -162
28 0 -26 27 -47 105 -80 132 -57 177 -107 177 -199 0 -143 -116 -208 -356
-197 -100 4 -216 25 -235 42 -3 4 58 196 65 204 2 2 23 -14 47 -36 53 -49 106
-69 137 -53 43 23 21 51 -79 105 -116 62 -146 99 -146 184 1 38 7 67 20 89 24
39 95 88 150 101 56 14 248 6 320 -14z m-3362 1 c101 -30 151 -98 151 -201 0
-35 -7 -73 -16 -90 -21 -40 -76 -91 -111 -104 -47 -18 -138 -13 -182 9 -22 11
-41 20 -42 20 -2 0 -3 -56 -3 -125 l0 -125 -140 0 -140 0 0 315 0 315 218 0
c157 0 232 -4 265 -14z m805 -233 c50 -137 102 -278 116 -315 l26 -68 -145 0
-144 0 -17 55 -18 56 -100 -3 -100 -3 -17 -50 -17 -50 -141 -3 c-78 -1 -141
-1 -141 2 0 2 39 111 86 242 47 132 97 272 112 312 l26 72 191 0 191 0 92
-247z m718 220 c53 -29 91 -73 105 -126 25 -93 -20 -201 -100 -244 -58 -30
-150 -32 -206 -3 -22 11 -41 20 -42 20 -2 0 -3 -56 -3 -125 l0 -125 -140 0
-140 0 0 316 0 316 243 -4 c227 -3 245 -4 283 -25z m484 -288 l0 -315 -145 0
-145 0 0 315 0 315 145 0 145 0 0 -315z m409 0 l-1 -315 -144 0 -144 0 0 315
0 315 145 0 146 0 -2 -315z m1974 295 c116 -43 164 -151 122 -271 -9 -24 -26
-54 -38 -68 -56 -60 -180 -80 -257 -41 l-40 20 -1 -117 c-1 -65 -1 -121 0
-125 0 -5 -64 -8 -144 -8 l-145 0 0 315 0 315 225 0 c200 0 230 -2 278 -20z
m507 -295 l0 -315 -145 0 -145 0 0 315 0 315 145 0 145 0 0 -315z m741 298
c-5 -10 -70 -115 -145 -233 l-135 -215 137 -5 137 -5 0 -74 c1 -42 -4 -75 -10
-77 -5 -2 -155 -3 -333 -2 l-322 3 136 220 c75 121 138 226 141 233 4 9 -25
12 -126 12 l-131 0 0 80 0 80 330 0 c312 0 330 -1 321 -17z m710 0 c-5 -10
-70 -115 -145 -233 l-136 -215 138 -5 137 -5 0 -78 0 -77 -332 0 c-183 0 -333
2 -333 6 0 3 38 64 83 137 154 242 197 313 197 320 0 4 -58 7 -130 7 l-130 0
0 80 0 80 330 0 c312 0 330 -1 321 -17z m663 -65 c16 -46 67 -184 113 -307 45
-124 83 -228 83 -233 0 -5 -64 -7 -142 -6 l-141 3 -17 50 -17 50 -101 3 -101
3 -16 -56 -16 -55 -140 0 c-86 0 -139 4 -139 10 0 8 187 530 215 603 6 15 26
17 199 17 l191 0 29 -82z m-5338 -1135 c172 -261 363 -445 618 -597 544 -325
1224 -348 1794 -63 219 111 405 256 586 462 66 74 169 222 205 293 18 36 26
42 52 42 l31 0 -28 -47 c-106 -186 -208 -316 -362 -465 -237 -228 -537 -395
-862 -478 -201 -51 -515 -69 -710 -41 -425 61 -792 241 -1096 538 -119 116
-191 204 -285 354 -86 135 -88 139 -57 139 19 0 40 -25 114 -137z m-1192 -30
c349 -898 1133 -1586 2058 -1807 281 -68 397 -81 703 -81 271 0 348 7 577 51
762 147 1461 615 1893 1269 130 196 232 395 305 590 l26 70 57 3 c35 2 57 -1
57 -7 0 -28 -111 -292 -177 -419 -417 -812 -1187 -1409 -2068 -1600 -263 -58
-353 -67 -670 -67 -303 0 -374 7 -620 56 -345 70 -750 235 -1035 423 -352 232
-671 543 -889 868 -143 213 -273 469 -346 681 l-24 67 58 0 58 0 37 -97z m206
35 c31 -85 166 -348 225 -438 240 -366 514 -638 867 -862 805 -511 1843 -562
2699 -132 587 294 1057 797 1310 1399 35 83 40 90 68 93 l31 3 -19 -48 c-264
-669 -764 -1206 -1414 -1518 -418 -200 -828 -286 -1297 -272 -337 10 -621 68
-930 188 -638 248 -1177 735 -1485 1339 -55 110 -135 289 -135 304 0 3 13 6
29 6 26 0 30 -6 51 -62z m1554 -28 l35 21 -11 -38 c-10 -36 -9 -39 22 -65 l33
-27 -43 -3 c-39 -3 -44 -6 -56 -38 l-12 -35 -11 28 c-6 16 -11 33 -11 38 0 5
-21 9 -47 9 -45 1 -47 2 -28 16 11 8 27 19 35 24 12 7 13 16 4 49 l-11 41 33
-21 34 -21 34 22z m2223 1 c32 20 36 21 30 5 -21 -53 -19 -63 15 -87 l33 -24
-44 -5 c-40 -5 -46 -8 -57 -40 l-12 -35 -11 28 c-6 16 -11 33 -11 38 0 5 -21
9 -47 9 l-48 0 38 27 c23 16 36 32 32 41 -3 8 -8 25 -12 40 l-6 26 32 -23 31
-23 37 23z m-1827 -91 c29 -22 58 -40 64 -40 6 0 36 18 68 41 32 22 58 38 58
36 0 -2 -9 -30 -20 -62 -11 -32 -20 -64 -20 -71 0 -6 28 -33 62 -58 l62 -46
-81 0 -81 0 -22 -72 -23 -73 -24 73 -25 72 -81 0 -81 0 65 48 66 47 -23 70
c-13 39 -23 71 -24 73 -1 6 10 -1 60 -38z m1230 0 c29 -22 59 -40 65 -40 7 0
37 18 68 41 32 22 57 38 57 36 0 -2 -9 -30 -20 -62 -11 -32 -20 -64 -20 -71 0
-6 28 -33 62 -58 l62 -46 -80 0 -80 0 -24 -72 -23 -73 -24 72 -24 72 -76 3
-77 3 60 44 c32 24 60 45 61 46 2 1 -8 34 -21 73 -14 40 -24 72 -22 72 1 0 27
-18 56 -40z m-594 -97 l30 -23 79 55 c43 30 86 61 95 70 9 8 19 15 23 15 3 0
-10 -46 -29 -102 -19 -56 -34 -109 -34 -119 0 -9 35 -41 78 -72 42 -31 86 -63
97 -72 18 -13 8 -14 -105 -15 l-126 0 -38 -117 -39 -118 -37 115 -36 115 -128
3 -128 3 99 70 c54 39 99 73 101 74 3 3 -50 183 -66 224 -5 13 64 -31 164
-106z m-1357 -353 c125 -104 151 -137 151 -192 -1 -50 -48 -98 -97 -98 -15 0
-18 -7 -15 -45 4 -40 0 -48 -28 -75 -25 -23 -41 -30 -74 -30 -51 0 -82 19
-219 132 l-107 90 67 81 c130 159 196 237 199 237 2 0 57 -45 123 -100z m3045
-67 l135 -151 -54 -47 -55 -47 -48 11 c-26 6 -58 14 -72 18 -23 6 -22 4 13
-35 20 -23 37 -46 37 -50 0 -8 -124 -122 -133 -122 -2 0 -66 69 -141 154
l-136 154 52 47 c28 25 56 44 62 42 24 -9 128 -29 132 -25 2 3 -13 24 -33 48
l-37 43 64 59 c36 32 68 57 72 56 4 -2 68 -71 142 -155z m-586 -249 c13 -26
21 -48 19 -50 -2 -2 -33 -17 -70 -34 -69 -31 -73 -35 -58 -59 8 -12 17 -11 60
7 l51 21 14 -27 c31 -62 30 -67 -23 -92 -46 -21 -49 -24 -39 -46 l11 -23 68
35 c38 18 71 34 74 34 6 0 45 -76 45 -89 0 -10 -283 -151 -301 -151 -9 0 -166
320 -175 355 -4 17 16 30 143 92 81 39 150 72 154 72 3 1 15 -20 27 -45z
m-1948 -24 c155 -70 200 -107 200 -165 0 -49 -23 -90 -60 -107 -29 -12 -30
-15 -24 -58 5 -39 -9 -156 -20 -167 -2 -2 -43 14 -91 36 -69 32 -86 44 -81 57
20 52 27 101 17 127 -6 15 -15 27 -19 27 -5 0 -23 -32 -41 -70 l-31 -70 -33
13 c-109 46 -137 61 -135 67 30 80 166 370 173 370 6 0 71 -27 145 -60z m1450
-152 c0 -7 13 -98 29 -203 16 -104 28 -191 26 -193 -1 -1 -31 -7 -66 -12 -35
-6 -74 -12 -86 -15 -19 -5 -22 1 -33 68 -6 39 -14 85 -17 100 l-5 29 -24 -36
c-14 -20 -29 -36 -34 -36 -4 0 -23 12 -41 27 l-32 28 6 -55 c4 -30 10 -76 13
-101 l6 -47 -86 -12 c-47 -7 -89 -10 -93 -7 -7 8 -66 397 -60 403 2 3 42 10
89 16 l85 11 42 -33 c22 -18 43 -31 44 -29 2 2 16 22 30 44 25 36 33 41 90 51
86 16 117 16 117 2z m-865 -23 c184 -22 175 -19 175 -63 0 -61 -7 -65 -89 -55
-76 10 -81 9 -81 -18 0 -18 27 -29 79 -29 33 0 34 0 27 -37 -3 -21 -6 -45 -6
-54 0 -13 -11 -16 -57 -15 -52 1 -58 -1 -61 -20 -3 -19 3 -22 70 -28 40 -4 75
-10 79 -14 3 -4 4 -28 1 -54 -3 -41 -7 -48 -26 -48 -32 1 -316 37 -320 41 -2
2 7 87 20 189 12 102 23 193 24 203 0 21 2 21 165 2z"/>
<path d="M3880 6801 c-73 -23 -147 -89 -178 -160 -23 -54 -20 -156 7 -212 46
-96 125 -149 231 -157 187 -12 328 162 275 344 -39 135 -203 225 -335 185z
m166 -72 c11 -12 2 -14 -59 -14 -76 -1 -101 -11 -160 -64 -36 -32 -67 -92 -67
-128 -1 -23 -2 -25 -11 -11 -15 26 0 93 32 143 42 66 105 97 188 91 35 -2 69
-10 77 -17z"/>
<path d="M4490 6035 c-100 -31 -160 -115 -160 -223 0 -73 19 -124 63 -171 65
-68 186 -92 272 -52 83 37 145 133 145 223 0 44 -37 128 -72 165 -36 37 -122
73 -171 72 -18 0 -52 -7 -77 -14z m131 -60 c32 -15 32 -16 6 -10 -84 17 -208
-64 -230 -150 -3 -15 -5 -14 -6 7 -3 80 87 166 175 168 12 0 37 -7 55 -15z"/>
<path d="M3675 5741 c-79 -35 -121 -112 -113 -207 14 -168 219 -240 343 -120
78 75 83 192 12 273 -61 69 -160 92 -242 54z m120 -46 c-5 -2 -30 -9 -54 -15
-46 -12 -111 -69 -111 -98 0 -8 -3 -13 -6 -9 -4 3 -3 14 1 24 5 10 9 22 9 27
1 6 20 25 44 43 34 26 53 33 85 32 23 0 38 -2 32 -4z"/>
<path d="M5603 5384 c-9 -23 13 -40 32 -24 12 10 13 16 4 26 -15 18 -28 18
-36 -2z"/>
<path d="M5210 5421 c0 -7 -3 -10 -7 -8 -5 3 -15 -5 -25 -17 -16 -22 -15 -22
4 -21 20 1 45 42 33 53 -3 3 -5 0 -5 -7z"/>
<path d="M5135 5349 c-4 -6 -5 -13 -2 -16 7 -7 27 6 27 18 0 12 -17 12 -25 -2z"/>
<path d="M4808 5343 c7 -3 16 -2 19 1 4 3 -2 6 -13 5 -11 0 -14 -3 -6 -6z"/>
<path d="M4713 5333 c9 -2 25 -2 35 0 9 3 1 5 -18 5 -19 0 -27 -2 -17 -5z"/>
<path d="M4842 5335 c3 -3 32 -10 64 -15 56 -8 55 -9 -26 -5 -96 4 -89 -1 17
-13 39 -5 70 -5 67 0 -3 4 3 8 13 9 16 0 16 1 -2 8 -24 10 -141 24 -133 16z"/>
<path d="M5018 5323 c7 -3 16 -2 19 1 4 3 -2 6 -13 5 -11 0 -14 -3 -6 -6z"/>
<path d="M4662 5307 c-8 -10 -6 -13 7 -13 11 0 17 6 14 13 -3 7 -6 13 -8 13
-1 0 -7 -6 -13 -13z"/>
<path d="M4700 5310 c0 -6 7 -10 15 -10 8 0 15 2 15 4 0 2 -7 6 -15 10 -8 3
-15 1 -15 -4z"/>
<path d="M5018 5303 c7 -3 16 -2 19 1 4 3 -2 6 -13 5 -11 0 -14 -3 -6 -6z"/>
<path d="M4620 5245 c-7 -8 -9 -15 -5 -15 4 0 2 -7 -5 -15 -8 -9 -9 -15 -2
-15 13 0 22 13 27 40 5 24 2 25 -15 5z"/>
<path d="M4585 5180 c-3 -5 -1 -10 4 -10 6 0 11 5 11 10 0 6 -2 10 -4 10 -3 0
-8 -4 -11 -10z"/>
<path d="M4228 5175 c-3 -3 -16 -8 -28 -10 -13 -3 -28 -10 -34 -16 -8 -9 -8
-10 2 -5 7 4 25 9 40 12 26 4 26 3 8 -11 -11 -8 -15 -15 -10 -15 16 0 51 29
36 30 -7 0 -10 5 -7 10 7 11 2 14 -7 5z"/>
<path d="M4258 5173 c6 -2 18 -2 25 0 6 3 1 5 -13 5 -14 0 -19 -2 -12 -5z"/>
<path d="M4318 5153 c12 -2 30 -2 40 0 9 3 -1 5 -23 4 -22 0 -30 -2 -17 -4z"/>
<path d="M4395 5151 c-3 -5 -2 -12 3 -15 5 -3 9 1 9 9 0 17 -3 19 -12 6z"/>
<path d="M4513 5150 c-30 -12 -29 -15 8 -16 17 -1 25 2 19 6 -9 6 -9 9 1 13 8
3 10 5 4 6 -5 0 -20 -4 -32 -9z"/>
<path d="M4596 5145 c-11 -8 -15 -15 -10 -15 6 0 19 7 30 15 10 8 15 14 9 14
-5 0 -19 -6 -29 -14z"/>
<path d="M4438 5143 c7 -3 16 -2 19 1 4 3 -2 6 -13 5 -11 0 -14 -3 -6 -6z"/>
<path d="M4129 5113 c-13 -16 -12 -17 4 -4 16 13 21 21 13 21 -2 0 -10 -8 -17
-17z"/>
<path d="M4140 5095 c-8 -9 -8 -15 -2 -15 12 0 26 19 19 26 -2 2 -10 -2 -17
-11z"/>
<path d="M3536 5071 c-15 -6 -16 -10 -7 -16 7 -4 16 -3 20 2 3 6 13 13 21 16
13 5 13 5 0 6 -8 0 -24 -4 -34 -8z"/>
<path d="M3591 5061 c-9 -6 -6 -8 13 -8 14 0 23 3 20 8 -7 11 -15 11 -33 0z"/>
<path d="M4117 5059 c7 -7 15 -10 18 -7 3 3 -2 9 -12 12 -14 6 -15 5 -6 -5z"/>
<path d="M4060 5050 c0 -5 7 -7 15 -4 8 4 15 8 15 10 0 2 -7 4 -15 4 -8 0 -15
-4 -15 -10z"/>
<path d="M3680 5030 c0 -5 5 -10 11 -10 5 0 7 5 4 10 -3 6 -8 10 -11 10 -2 0
-4 -4 -4 -10z"/>
<path d="M4600 5029 c0 -5 5 -7 10 -4 6 3 10 8 10 11 0 2 -4 4 -10 4 -5 0 -10
-5 -10 -11z"/>
<path d="M4030 5020 c0 -5 4 -10 9 -10 6 0 13 5 16 10 3 6 -1 10 -9 10 -9 0
-16 -4 -16 -10z"/>
<path d="M3338 5003 c7 -3 16 -2 19 1 4 3 -2 6 -13 5 -11 0 -14 -3 -6 -6z"/>
<path d="M3415 5000 c-3 -5 1 -10 9 -10 9 0 16 5 16 10 0 6 -4 10 -9 10 -6 0
-13 -4 -16 -10z"/>
<path d="M3680 4994 c0 -14 3 -14 15 -4 8 7 15 14 15 16 0 2 -7 4 -15 4 -8 0
-15 -7 -15 -16z"/>
<path d="M3730 5003 c0 -22 24 -32 40 -15 13 14 12 15 -2 10 -8 -4 -21 -1 -27
5 -8 8 -11 8 -11 0z"/>
<path d="M3955 5000 l-20 -9 20 0 c11 0 27 4 35 9 13 9 13 10 0 9 -8 0 -24 -4
-35 -9z"/>
<path d="M3270 4980 c-8 -5 -10 -10 -5 -10 6 0 17 5 25 10 8 5 11 10 5 10 -5
0 -17 -5 -25 -10z"/>
<path d="M3353 4983 c9 -2 25 -2 35 0 9 3 1 5 -18 5 -19 0 -27 -2 -17 -5z"/>
<path d="M3780 4980 c-8 -5 -10 -10 -5 -10 6 0 17 5 25 10 8 5 11 10 5 10 -5
0 -17 -5 -25 -10z"/>
<path d="M4340 4955 c0 -8 2 -15 4 -15 2 0 6 7 10 15 3 8 1 15 -4 15 -6 0 -10
-7 -10 -15z"/>
<path d="M4148 4883 c7 -3 16 -2 19 1 4 3 -2 6 -13 5 -11 0 -14 -3 -6 -6z"/>
<path d="M4064 4865 c-14 -11 -15 -14 -4 -14 8 0 24 6 34 14 15 11 16 15 5 15
-8 0 -24 -7 -35 -15z"/>
<path d="M3194 4820 c1 -8 10 -16 21 -17 15 -1 15 0 3 3 -9 3 -19 11 -21 17
-2 7 -3 5 -3 -3z"/>
<path d="M3320 4792 c0 -5 6 -9 13 -10 6 -1 23 -3 37 -5 15 -3 17 -2 5 1 -14
4 -6 8 25 13 44 6 43 6 -17 7 -35 1 -63 -2 -63 -6z"/>
<path d="M3688 4793 c6 -2 18 -2 25 0 6 3 1 5 -13 5 -14 0 -19 -2 -12 -5z"/>
<path d="M3608 4783 c7 -3 16 -2 19 1 4 3 -2 6 -13 5 -11 0 -14 -3 -6 -6z"/>
<path d="M2273 5313 c-7 -2 -13 -11 -13 -18 0 -23 20 -28 41 -9 15 13 16 19 7
26 -14 9 -17 9 -35 1z"/>
<path d="M570 3884 l0 -66 33 7 c35 7 67 38 67 64 0 33 -30 61 -66 61 l-34 0
0 -66z"/>
<path d="M1272 3792 c-12 -38 -22 -71 -22 -75 0 -4 20 -7 45 -7 30 0 45 4 45
13 0 13 -40 137 -44 137 -1 0 -12 -31 -24 -68z"/>
<path d="M2052 3888 l3 -63 30 3 c40 5 65 29 65 62 0 35 -29 60 -69 60 l-32 0
3 -62z"/>
<path d="M4948 3893 c-2 -36 0 -67 3 -69 11 -6 72 15 81 28 10 17 10 59 -1 76
-4 7 -24 17 -44 21 l-35 9 -4 -65z"/>
<path d="M7542 3800 c-30 -88 -30 -90 23 -90 25 0 45 4 45 8 0 4 -10 39 -23
77 l-24 69 -21 -64z"/>
<path d="M2620 2200 l-21 -29 26 -7 c37 -9 61 15 46 45 -16 28 -26 27 -51 -9z"/>
<path d="M2539 2102 c-43 -50 -43 -51 -15 -63 31 -15 56 1 56 36 0 34 -23 49
-41 27z"/>
<path d="M3172 1855 c-17 -37 -15 -45 13 -45 29 0 47 28 34 53 -14 24 -34 21
-47 -8z"/>
</g>
</svg>
