<?xml version="1.0" standalone="no"?>
<!DOCTYPE svg PUBLIC "-//W3C//DTD SVG 20010904//EN"
 "http://www.w3.org/TR/2001/REC-SVG-20010904/DTD/svg10.dtd">
<svg version="1.0" xmlns="http://www.w3.org/2000/svg"
 width="303.000000pt" height="303.000000pt" viewBox="0 0 303.000000 303.000000"
 preserveAspectRatio="xMidYMid meet">

<g transform="translate(0.000000,303.000000) scale(0.100000,-0.100000)"
fill="#000000" stroke="none">
<path d="M1251 3005 c-217 -45 -411 -119 -451 -173 -15 -20 -34 -32 -59 -36
-58 -9 -156 -81 -287 -211 -255 -254 -380 -512 -444 -916 -11 -69 -11 -79 8
-115 20 -39 20 -39 0 -78 -20 -38 -20 -41 -3 -149 57 -372 198 -652 452 -897
123 -120 220 -190 272 -197 28 -4 45 -14 61 -35 41 -56 238 -132 448 -173 290
-58 620 -17 902 112 36 16 71 37 79 46 25 31 39 88 30 122 -5 17 -155 285
-334 595 -179 309 -325 564 -325 566 0 2 106 4 235 4 l235 0 0 -137 c0 -113 4
-145 19 -179 45 -99 172 -120 248 -42 38 39 53 76 53 128 0 42 9 54 34 44 12
-5 15 -37 18 -201 l3 -195 37 -34 c33 -29 45 -34 88 -34 43 0 55 5 88 34 l37
34 3 291 3 291 115 0 c124 0 151 8 191 54 20 23 23 37 23 119 0 51 -4 97 -8
102 -5 6 -14 40 -21 77 -26 149 -112 362 -203 503 -140 218 -396 457 -504 472
-30 4 -44 12 -55 32 -31 53 -245 136 -458 177 -170 33 -367 32 -530 -1z m543
-95 c108 -21 256 -69 334 -109 28 -15 42 -28 42 -42 0 -22 -34 -94 -50 -104
-5 -3 -40 12 -77 35 -78 47 -105 55 -227 70 -48 6 -125 20 -170 30 -105 26
-143 25 -279 -4 -62 -13 -149 -29 -194 -35 -83 -10 -156 -40 -219 -88 l-32
-24 -26 47 c-39 69 -35 89 22 118 110 56 300 110 447 127 107 12 308 2 429
-21z m-164 -210 c41 -11 116 -24 165 -30 111 -13 145 -24 215 -68 30 -19 56
-36 58 -37 3 -2 -492 -866 -535 -933 -14 -23 -18 -18 -124 165 -78 135 -116
191 -133 197 -30 11 -56 -6 -56 -38 1 -11 50 -104 109 -206 l108 -185 -545 -3
c-300 -1 -548 0 -551 4 -3 3 -8 41 -9 83 -3 67 0 87 23 142 15 35 48 124 73
197 43 131 46 136 116 210 39 43 97 111 128 153 61 83 87 105 162 138 40 17
52 19 61 9 7 -7 60 -97 119 -199 58 -103 113 -192 121 -199 19 -16 45 -9 61
16 13 19 4 38 -107 232 l-121 212 24 20 c55 47 141 79 243 90 55 5 132 19 170
30 90 24 132 24 225 0z m-860 0 c16 -9 74 -99 68 -105 -2 -2 -28 -15 -58 -30
-83 -41 -116 -70 -177 -154 -31 -42 -87 -108 -124 -148 -80 -85 -92 -106 -135
-238 -18 -55 -49 -138 -68 -185 -33 -77 -36 -94 -36 -182 l0 -98 -58 0 c-32 0
-63 5 -70 12 -40 40 31 361 123 554 93 195 258 397 427 525 44 32 81 59 84 59
3 0 14 -4 24 -10z m1594 -41 c281 -213 469 -504 545 -845 29 -128 37 -220 21
-239 -8 -10 -31 -15 -71 -15 l-59 0 0 88 c0 94 -11 140 -58 242 -16 36 -38 94
-47 130 -30 108 -64 169 -140 249 -39 42 -92 106 -118 142 -52 75 -97 114
-177 154 -30 15 -57 29 -59 31 -4 4 36 72 57 97 22 25 32 22 106 -34z m-146
-178 c69 -35 94 -58 152 -136 24 -33 74 -92 111 -132 78 -83 94 -110 121 -206
10 -39 37 -112 58 -162 46 -108 55 -154 45 -230 -6 -52 -8 -55 -35 -55 -60 0
-60 -3 -60 -325 0 -161 -3 -300 -6 -309 -8 -21 -60 -21 -68 0 -3 9 -6 92 -6
186 0 193 -8 225 -65 252 -42 20 -59 20 -101 0 -44 -21 -56 -44 -65 -119 -11
-90 -63 -122 -114 -70 -24 23 -25 29 -25 160 l0 135 178 0 c187 0 202 3 202
45 0 45 0 45 -482 45 l-459 0 24 43 c14 23 74 128 134 232 60 105 172 299 249
432 76 134 143 243 147 243 4 0 33 -13 65 -29z m-1978 -1108 c0 -91 2 -102 45
-208 25 -62 54 -141 64 -177 29 -101 48 -132 133 -226 44 -48 96 -111 115
-140 45 -68 114 -128 183 -160 30 -14 56 -26 58 -28 6 -4 -54 -98 -70 -107
-20 -13 -89 31 -192 122 -238 211 -411 523 -461 833 -28 173 -22 187 73 188
l52 0 0 -97z m1182 65 c-23 -39 -359 -620 -457 -791 -37 -65 -73 -121 -80
-124 -15 -5 -86 28 -132 64 -18 13 -57 56 -86 96 -30 40 -84 105 -121 146 -72
78 -84 100 -121 220 -12 42 -39 114 -59 161 -31 74 -36 96 -36 166 0 44 3 84
7 87 3 4 253 7 555 7 l550 0 -20 -32z m231 -248 c346 -599 417 -723 415 -725
-2 -1 -27 -18 -56 -38 -62 -42 -100 -54 -215 -68 -45 -5 -118 -18 -162 -29
-102 -25 -128 -25 -250 4 -107 25 -120 24 -136 -6 -20 -37 8 -59 112 -84 116
-29 197 -30 297 -5 43 11 119 25 171 31 115 15 160 30 228 76 29 20 57 33 63
29 16 -10 50 -81 50 -104 0 -26 -77 -66 -210 -110 -316 -104 -667 -91 -979 36
-115 47 -129 63 -100 118 37 71 39 71 110 25 81 -52 105 -58 131 -32 30 30 15
57 -50 92 -31 17 -68 39 -81 49 l-24 18 274 476 c151 261 277 472 281 469 3
-4 62 -104 131 -222z"/>
<path d="M1250 2637 c-53 -27 -105 -98 -115 -157 -11 -63 11 -132 57 -185 124
-141 358 -64 375 125 7 70 -9 120 -50 167 -65 74 -178 95 -267 50z m-4 -153
c-6 -19 -12 -28 -14 -20 -3 13 14 56 22 56 2 0 -2 -16 -8 -36z m12 -119 c-3
-3 -9 2 -12 12 -6 14 -5 15 5 6 7 -7 10 -15 7 -18z"/>
<path d="M1766 2605 c-37 -20 -53 -41 -66 -88 -9 -31 -8 -45 9 -83 16 -36 29
-49 65 -65 38 -16 52 -18 84 -10 87 24 128 123 82 198 -35 59 -113 80 -174 48z
m88 -91 c19 -18 19 -20 6 -45 -16 -29 -58 -25 -66 6 -11 45 29 71 60 39z"/>
<path d="M774 2381 c-45 -28 -64 -59 -64 -109 0 -135 145 -187 233 -83 90 108
-49 265 -169 192z m87 -81 c39 -21 13 -75 -33 -68 -26 3 -37 41 -18 64 15 17
25 18 51 4z"/>
<path d="M1475 2125 c-22 -8 -41 -15 -42 -15 -1 0 -11 -15 -22 -34 -13 -21
-21 -50 -21 -80 0 -127 173 -173 240 -63 39 63 14 162 -48 185 -51 20 -67 21
-107 7z m79 -107 c23 -37 -36 -77 -63 -44 -8 10 -11 26 -7 42 5 20 12 25 33
22 14 -2 31 -11 37 -20z"/>
<path d="M916 2056 c-76 -28 -126 -82 -147 -159 -36 -133 77 -273 216 -270
176 4 277 198 180 345 -49 75 -167 114 -249 84z m34 -96 c-35 -24 -54 -31 -30
-11 14 11 30 21 35 21 6 0 3 -5 -5 -10z m53 3 c-7 -2 -19 -2 -25 0 -7 3 -2 5
12 5 14 0 19 -2 13 -5z"/>
<path d="M502 1859 c-55 -11 -102 -68 -102 -124 0 -41 30 -95 64 -116 106 -65
236 45 190 160 -26 65 -82 95 -152 80z m66 -120 c6 -49 -58 -65 -73 -18 -9 27
13 51 44 47 20 -2 27 -9 29 -29z"/>
<path d="M2160 2342 c-19 -9 -45 -33 -58 -52 -60 -89 26 -216 133 -196 133 25
149 207 22 255 -39 15 -56 14 -97 -7z m90 -117 c0 -35 -36 -52 -61 -29 -25 22
-24 39 3 58 28 20 58 4 58 -29z"/>
<path d="M2309 2046 c-101 -26 -164 -108 -164 -211 1 -99 51 -169 148 -210 47
-19 82 -19 141 1 91 31 149 114 148 212 -1 144 -133 244 -273 208z"/>
<path d="M1863 1880 c-112 -68 -64 -243 67 -243 73 0 130 57 130 130 0 102
-110 166 -197 113z m97 -85 c26 -32 -13 -81 -47 -59 -35 22 -23 74 17 74 10 0
23 -7 30 -15z"/>
<path d="M985 1436 c-48 -22 -68 -51 -73 -109 -5 -68 24 -115 86 -137 143 -49
239 148 115 235 -31 22 -94 27 -128 11z m80 -89 c21 -16 15 -61 -11 -71 -42
-16 -76 50 -36 73 22 14 25 13 47 -2z"/>
<path d="M494 1361 c-32 -20 -64 -74 -64 -111 0 -12 8 -38 17 -57 46 -97 190
-97 236 0 21 44 21 70 0 114 -21 45 -67 73 -118 73 -22 0 -54 -9 -71 -19z
m100 -87 c19 -18 19 -20 6 -45 -14 -25 -56 -25 -70 1 -23 44 29 80 64 44z"/>
<path d="M765 1148 c-50 -18 -102 -66 -125 -114 -32 -66 -25 -157 16 -216 96
-138 299 -127 376 21 37 71 37 131 0 202 -37 71 -100 112 -180 116 -31 1 -70
-3 -87 -9z"/>
<path d="M1461 1193 c-95 -47 -93 -198 4 -239 45 -18 69 -18 112 3 97 46 97
190 0 236 -44 21 -73 21 -116 0z m80 -83 c25 -14 25 -56 -1 -70 -45 -24 -86
44 -42 69 21 13 20 13 43 1z"/>
<path d="M1295 861 c-49 -22 -99 -77 -115 -126 -7 -21 -10 -64 -8 -96 6 -79
43 -134 117 -171 93 -48 179 -33 251 41 88 90 92 204 12 293 -67 75 -171 99
-257 59z m-28 -203 c-3 -8 -6 -5 -6 6 -1 11 2 17 5 13 3 -3 4 -12 1 -19z"/>
<path d="M1766 700 c-52 -16 -96 -73 -96 -125 0 -42 29 -93 65 -115 124 -76
263 81 173 195 -21 27 -75 56 -100 54 -7 0 -26 -5 -42 -9z m74 -109 c14 -28
-18 -66 -48 -57 -26 9 -38 42 -22 61 18 21 57 18 70 -4z"/>
</g>
</svg>
